<svg width="135" height="156" viewBox="0 0 135 156" fill="none" xmlns="http://www.w3.org/2000/svg">
<path d="M28 51.3334C27.6138 51.3334 27.2417 51.1794 26.9687 50.9064L26.6945 50.6345C25.3703 49.322 21.7373 45.7229 18.326 41.0352C14.6767 36.022 11.0833 29.505 11.0833 23.0417C11.0833 16.7697 12.9488 12.1252 16.114 9.05336C19.2675 5.99086 23.5328 4.66669 28 4.66669C32.4683 4.66669 36.7325 5.99203 39.886 9.05336C43.05 12.124 44.9167 16.7685 44.9167 23.0417C44.9167 29.4992 41.4015 35.9415 37.7848 40.9244C34.4132 45.5689 30.7895 49.1622 29.344 50.596L29.0313 50.9064C28.8959 51.0418 28.7351 51.1492 28.5581 51.2225C28.3812 51.2957 28.1915 51.3334 28 51.3334ZM35.4235 39.2117C38.9527 34.349 42 28.5414 42 23.0417C42 17.3554 40.3235 13.5415 37.8548 11.1452C35.3733 8.73836 31.9083 7.58336 28 7.58336C24.0917 7.58336 20.6267 8.73836 18.1452 11.1452C15.6765 13.5415 14 17.3554 14 23.0417C14 28.5367 17.115 34.4167 20.685 39.319C23.4477 43.1165 26.3667 46.1732 28 47.817C29.6893 46.1195 32.648 43.036 35.4235 39.2105V39.2117Z" fill="#0190BC"/>
<path d="M59.6897 73.0396C59.4643 72.5972 59.4235 72.0809 59.5769 71.6088L59.7283 71.1361C60.4589 68.853 62.4614 62.5903 65.8403 55.9462C69.4532 48.8394 74.8215 40.9189 82.2258 37.1463C89.4109 33.4853 95.8204 32.9114 101.187 34.7443C106.536 36.5693 110.543 40.6826 113.15 45.8001C115.758 50.919 116.729 56.5775 115.063 61.977C113.392 67.394 109.161 72.2434 101.974 75.905C94.5768 79.6743 85.1448 79.4078 77.3255 78.1731C70.0368 77.0216 63.8052 74.9678 61.3189 74.1488L60.7809 73.9718C60.5467 73.8957 60.3298 73.7742 60.1426 73.6142C59.9553 73.4542 59.8015 73.259 59.6897 73.0396ZM77.9092 74.4683C85.5397 75.6729 93.9716 75.7739 100.272 72.5638C106.786 69.2446 110.177 65.0979 111.481 60.8711C112.79 56.6235 112.09 51.9799 109.809 47.5026C107.528 43.0253 104.182 39.73 99.9762 38.2921C95.79 36.8628 90.4424 37.1684 83.9282 40.4875C77.6333 43.695 72.7155 50.6956 69.1833 57.6469C66.4455 63.0283 64.6477 68.1564 63.7179 70.9871C66.6486 71.9315 71.908 73.521 77.9105 74.4676L77.9092 74.4683Z" fill="#F5921D"/>
<path d="M50.3333 124C50.3333 123.559 50.5093 123.133 50.8213 122.821L51.132 122.508C52.632 120.995 56.7453 116.843 62.1027 112.944C67.832 108.773 75.28 104.667 82.6667 104.667C89.8347 104.667 95.1427 106.799 98.6533 110.416C102.153 114.02 103.667 118.895 103.667 124C103.667 129.107 102.152 133.98 98.6533 137.584C95.144 141.2 89.836 143.333 82.6667 143.333C75.2867 143.333 67.924 139.316 62.2293 135.183C56.9213 131.329 52.8147 127.188 51.176 125.536L50.8213 125.179C50.6666 125.024 50.5438 124.84 50.4601 124.638C50.3764 124.436 50.3333 124.219 50.3333 124ZM64.1867 132.484C69.744 136.517 76.3813 140 82.6667 140C89.1653 140 93.524 138.084 96.2627 135.263C99.0133 132.427 100.333 128.467 100.333 124C100.333 119.533 99.0133 115.573 96.2627 112.737C93.524 109.916 89.1653 108 82.6667 108C76.3867 108 69.6667 111.56 64.064 115.64C59.724 118.797 56.2307 122.133 54.352 124C56.292 125.931 59.816 129.312 64.188 132.484H64.1867Z" fill="#61CCE8"/>
</svg>
